<svg width="22" height="20" viewBox="0 0 22 20" fill="none" xmlns="http://www.w3.org/2000/svg">
<path d="M19.754 0.00204778C19.4905 0.0220537 19.2319 0.0865647 18.9883 0.193064H18.985C18.7511 0.289857 17.639 0.778105 15.9484 1.51819L9.88997 4.18128C5.54271 6.09145 1.26932 7.97249 1.26932 7.97249L1.32021 7.95193C1.32021 7.95193 1.02557 8.05301 0.71781 8.27314C0.527677 8.39942 0.364066 8.56465 0.236879 8.75882C0.0858703 8.9901 -0.0355935 9.34387 0.00954512 9.70962C0.0834083 10.3281 0.467496 10.699 0.743252 10.9037C1.02229 11.111 1.2882 11.2078 1.2882 11.2078H1.29476L5.30225 12.6168C5.48198 13.219 6.52345 16.7927 6.77377 17.6158C6.92149 18.1075 7.06511 18.415 7.24485 18.6497C7.33184 18.7696 7.43361 18.8698 7.55589 18.9504C7.61947 18.989 7.68725 19.0194 7.75779 19.0412L7.71675 19.0309C7.72906 19.0343 7.73891 19.0446 7.74794 19.048C7.78077 19.0574 7.80293 19.0609 7.84478 19.0677C8.47918 19.2682 8.98884 18.857 8.98884 18.857L9.01756 18.833L11.3836 16.5845L15.3493 19.7598L15.4396 19.8001C16.266 20.1787 17.1031 19.968 17.5455 19.5962C17.9911 19.2219 18.1643 18.7431 18.1643 18.7431L18.193 18.666L21.2575 2.28054C21.3445 1.87624 21.3667 1.49763 21.2706 1.13016C21.1716 0.758255 20.943 0.438394 20.6297 0.233323C20.3666 0.0663893 20.0615 -0.0141856 19.754 0.00204778ZM19.6711 1.75803C19.6678 1.81199 19.6777 1.806 19.6547 1.90964V1.91906L16.6189 18.134C16.6058 18.1572 16.5836 18.2077 16.5229 18.2583C16.4589 18.3114 16.408 18.3448 16.1413 18.2343L11.2909 14.3531L8.361 17.1404L8.97653 13.0374L16.9012 5.32824C17.2279 5.0113 17.1187 4.94449 17.1187 4.94449C17.1417 4.5556 16.6255 4.83057 16.6255 4.83057L6.63261 11.2917L6.62932 11.2746L1.83971 9.59142V9.58799L1.8274 9.58542C1.8358 9.58251 1.84402 9.57908 1.85202 9.57514L1.87828 9.56143L1.90372 9.55201C1.90372 9.55201 6.1804 7.67097 10.5277 5.76081C12.7042 4.80401 14.8971 3.84036 16.5836 3.09686C18.2702 2.35763 19.5168 1.81542 19.5874 1.7863C19.6547 1.75888 19.6227 1.75888 19.6711 1.75888V1.75803Z" fill="#ED553B"/>
</svg>
